<svg aria-hidden="true" style="position: absolute; width: 0; height: 0; overflow: hidden;" version="1.1" xmlns="http://www.w3.org/2000/svg" xmlns:xlink="http://www.w3.org/1999/xlink">
<defs>
<symbol id="icon-add-group-1" viewBox="0 0 32 32">
<path d="M18.529 21.037c-0.782-0.546-1.619-0.991-2.493-1.331 1.163-1.057 1.935-2.539 2.069-4.197 1.764-1.719 4.077-2.661 6.556-2.661 1.935 0 3.794 0.583 5.374 1.685 0.566 0.395 1.345 0.256 1.74-0.31s0.256-1.345-0.31-1.74c-0.783-0.546-1.619-0.99-2.493-1.331 1.284-1.167 2.091-2.849 2.091-4.716 0-3.515-2.86-6.374-6.374-6.374s-6.374 2.859-6.374 6.374c0 1.86 0.8 3.536 2.075 4.702-0.175 0.067-0.348 0.138-0.52 0.214-0.782 0.344-1.518 0.768-2.201 1.265-0.943-2.343-3.239-4.001-5.916-4.001-3.515 0-6.374 2.859-6.374 6.374 0 1.855 0.796 3.526 2.064 4.692-3.39 1.27-6.139 3.999-7.259 7.478-0.371 1.154-0.175 2.377 0.539 3.357s1.818 1.541 3.030 1.541h10.874c0.69 0 1.25-0.56 1.25-1.25s-0.56-1.25-1.25-1.25h-10.874c-0.404 0-0.772-0.187-1.010-0.514s-0.303-0.735-0.18-1.119c1.235-3.841 5.003-6.523 9.162-6.523 1.935 0 3.793 0.583 5.374 1.685 0.566 0.395 1.345 0.256 1.74-0.31s0.256-1.345-0.31-1.74zM24.688 2.562c2.136 0 3.875 1.738 3.875 3.874s-1.738 3.874-3.875 3.874c-2.136 0-3.874-1.738-3.874-3.874s1.738-3.874 3.874-3.874zM11.752 11.116c2.136 0 3.874 1.738 3.874 3.874s-1.738 3.875-3.874 3.875-3.874-1.738-3.874-3.875c0-2.136 1.738-3.874 3.874-3.874zM32 26.122c0 0.69-0.56 1.25-1.25 1.25h-3.437v3.437c0 0.69-0.56 1.25-1.25 1.25s-1.25-0.56-1.25-1.25v-3.437h-3.437c-0.69 0-1.25-0.56-1.25-1.25s0.56-1.25 1.25-1.25h3.437v-3.437c0-0.69 0.56-1.25 1.25-1.25s1.25 0.56 1.25 1.25v3.437h3.437c0.691 0 1.25 0.56 1.25 1.25z"></path>
</symbol>
<symbol id="icon-Arrow" viewBox="0 0 32 32">
<path d="M0.667 15.635c-0.202 0.202-0.202 0.528 0 0.73l3.285 3.285c0.202 0.202 0.528 0.202 0.73 0s0.202-0.528 0-0.73l-2.92-2.92 2.92-2.92c0.202-0.202 0.202-0.528 0-0.73s-0.528-0.202-0.73 0l-3.285 3.285zM32 15.484h-30.968v1.032h30.968v-1.032z"></path>
</symbol>
<symbol id="icon-delete" viewBox="0 0 32 32">
<path fill="#a6a6a6" style="fill: var(--color1, #a6a6a6)" d="M16 0c-8.837 0-16 7.163-16 16s7.163 16 16 16c8.836 0 16-7.164 16-16s-7.164-16-16-16zM17.61 7.559h-3.209v0.54h-1.159v-0.616c0-0.597 0.486-1.083 1.083-1.083h3.361c0.597 0 1.083 0.486 1.083 1.083v0.616h-1.159v-0.54zM21.445 12.691c0.298 0 0.533 0.254 0.508 0.552l-0.909 11.246c-0.051 0.628-0.574 1.112-1.204 1.112h-7.67c-0.629 0-1.153-0.484-1.204-1.111l-0.91-11.246c-0.024-0.297 0.211-0.552 0.509-0.552h10.879zM13.2 24.4c0.319-0.020 0.562-0.295 0.543-0.614l-0.57-9.233c-0.020-0.32-0.296-0.562-0.614-0.543-0.319 0.020-0.562 0.295-0.543 0.614l0.57 9.233c0.019 0.307 0.274 0.544 0.578 0.544 0.012 0 0.024-0 0.036-0.001zM16.592 23.822v-9.233c0-0.32-0.26-0.579-0.58-0.579s-0.58 0.259-0.58 0.579v9.233c0 0.32 0.259 0.579 0.58 0.579s0.58-0.259 0.58-0.579zM19.995 14.623c0.019-0.319-0.225-0.594-0.544-0.613s-0.594 0.225-0.612 0.544l-0.544 9.233c-0.019 0.32 0.225 0.594 0.544 0.613l0.011 0 0.024 0c0.304 0 0.56-0.237 0.578-0.545l0.544-9.233zM23.069 9.762l0.381 1.141c0.073 0.22-0.022 0.444-0.2 0.556-0.072 0.046-0.159 0.073-0.253 0.073h-13.98c-0.094 0-0.18-0.027-0.253-0.073-0.178-0.112-0.274-0.336-0.2-0.556l0.381-1.141c0.1-0.301 0.382-0.504 0.699-0.504h12.728c0.317 0 0.599 0.203 0.699 0.504z"></path>
</symbol>
<symbol id="icon-plus" viewBox="0 0 32 32">
<path fill="#fff" style="fill: var(--color2, #fff)" d="M31.883 17.058h-14.754v14.372h-2.37v-14.372h-14.677v-2.217h14.677v-14.448h2.37v14.448h14.754v2.217z"></path>
</symbol>
<symbol id="icon-Rectangle2" viewBox="0 0 32 32">
<path fill="#ff765f" style="fill: var(--color3, #ff765f)" d="M4.444 0h23.111c2.455 0 4.444 1.99 4.444 4.444v23.111c0 2.455-1.99 4.444-4.444 4.444h-23.111c-2.455 0-4.444-1.99-4.444-4.444v-23.111c0-2.455 1.99-4.444 4.444-4.444z"></path>
</symbol>
<symbol id="icon-sprity" viewBox="0 0 32 32">
<path fill="#ff765f" style="fill: var(--color3, #ff765f)" d="M4.444 0h23.111c2.455 0 4.444 1.99 4.444 4.444v23.111c0 2.455-1.99 4.444-4.444 4.444h-23.111c-2.455 0-4.444-1.99-4.444-4.444v-23.111c0-2.455 1.99-4.444 4.444-4.444z"></path>
</symbol>
<symbol id="icon-Vector" viewBox="0 0 32 32">
<path fill="#a6a6a6" style="fill: var(--color1, #a6a6a6)" d="M15.999 0c-8.836 0-15.999 7.164-15.999 16s7.163 16 15.999 16c8.836 0 16-7.164 16-16s-7.164-16-16-16zM23.605 11.514l-1.52 1.52-3.093-3.093-1.174 1.174 3.093 3.093-7.587 7.587-3.093-3.093-1.174 1.174 3.093 3.093-0.756 0.756-0.014-0.014c-0.084 0.138-0.22 0.239-0.382 0.275l-2.885 0.643c-0.043 0.010-0.087 0.014-0.131 0.014-0.157 0-0.31-0.062-0.424-0.176-0.146-0.145-0.206-0.354-0.161-0.555l0.643-2.884c0.036-0.162 0.137-0.298 0.275-0.382l-0.015-0.015 12.21-12.211c0.179-0.179 0.47-0.179 0.649 0.001l2.445 2.444c0.179 0.179 0.179 0.47-0 0.649z"></path>
</symbol>
<symbol id="icon-Logo" viewBox="0 0 107 32">
<path fill="#181c27" style="fill: var(--color4, #181c27)" d="M36.213 12.011c-2.172 0-3.811 1.712-3.811 3.985s1.656 3.985 3.85 3.985c2.172 0 3.81-1.712 3.81-3.985s-1.655-3.985-3.849-3.985zM47.223 0.162h-47.223v31.838h47.223l11.152-15.885-11.152-15.953zM24.692 21.036l-0.109 0.093c-1.763 1.486-3.804 2.239-6.066 2.239-2.139 0-4.068-0.743-5.433-2.092-1.352-1.338-2.097-3.213-2.097-5.28 0-1.986 0.757-3.834 2.134-5.204 1.397-1.397 3.304-2.167 5.38-2.167 2.34 0 3.959 0.564 5.596 1.947l0.233 0.197-2.301 2.754-0.239-0.198c-1.004-0.832-1.881-1.314-3.392-1.314-2.004 0-3.634 1.788-3.634 3.985 0 2.332 1.619 4.024 3.849 4.024 0.982 0 1.854-0.232 2.535-0.674v-1.481h-3.040v-3.213h6.584v6.384zM41.678 21.203c-1.417 1.396-3.358 2.165-5.466 2.165s-4.045-0.763-5.447-2.151c-1.381-1.366-2.142-3.218-2.142-5.221-0.006-0.967 0.182-1.926 0.553-2.82s0.918-1.706 1.609-2.387c1.417-1.396 3.358-2.162 5.466-2.162s4.044 0.764 5.446 2.151c1.381 1.366 2.142 3.218 2.142 5.221 0.006 0.967-0.182 1.925-0.553 2.818s-0.918 1.704-1.608 2.385z"></path>
<path fill="#fff" style="fill: var(--color2, #fff); stroke: var(--color2, #fff)" stroke="#fff" stroke-linejoin="miter" stroke-linecap="butt" stroke-miterlimit="10" stroke-width="0.7619" d="M11.278 16.022c0-3.815 2.988-6.94 7.074-6.94 2.429 0 3.893 0.652 5.3 1.84l-1.87 2.243c-1.041-0.863-1.966-1.361-3.527-1.361-2.159 0-3.874 1.898-3.874 4.218 0 2.454 1.696 4.256 4.086 4.256 1.079 0 2.043-0.268 2.795-0.805v-1.917h-2.988v-2.552h5.859v5.828c-1.388 1.169-3.296 2.128-5.763 2.128-4.202 0-7.093-2.933-7.093-6.937z"></path>
<path fill="#fff" style="fill: var(--color2, #fff); stroke: var(--color2, #fff)" stroke="#fff" stroke-linejoin="miter" stroke-linecap="butt" stroke-miterlimit="10" stroke-width="0.7619" d="M29.176 16.115c0-3.815 3.029-6.94 7.189-6.94s7.151 3.087 7.151 6.94c0 3.815-3.029 6.94-7.189 6.94s-7.151-3.087-7.151-6.94zM40.413 16.115c0-2.301-1.696-4.218-4.086-4.218s-4.048 1.879-4.048 4.218c0 2.3 1.696 4.218 4.086 4.218s4.048-1.879 4.048-4.218z"></path>
<path fill="#ff6c00" style="fill: var(--color5, #ff6c00)" d="M106.667 0h-47.164v31.838h47.164v-31.838z"></path>
<path fill="#fff" style="fill: var(--color2, #fff); stroke: var(--color2, #fff)" stroke="#fff" stroke-linejoin="miter" stroke-linecap="butt" stroke-miterlimit="10" stroke-width="0.7619" d="M74.033 9.542h2.968v13.42h-2.968v-13.42z"></path>
<path fill="#fff" style="fill: var(--color2, #fff); stroke: var(--color2, #fff)" stroke="#fff" stroke-linejoin="miter" stroke-linecap="butt" stroke-miterlimit="10" stroke-width="0.7619" d="M85.783 12.265h-4.106v-2.722h11.179v2.722h-4.105v10.697h-2.968v-10.697z"></path>
</symbol>
<symbol id="icon-LogOut" viewBox="0 0 32 32">
<path fill="rgba(24, 28, 39, 0.6)" style="fill: var(--color6, rgba(24, 28, 39, 0.6))" d="M26.769 11.242v-0c0.384-0.384 1.007-0.384 1.391 0l2.799 2.799c1.115 1.114 1.115 2.928 0 4.042l-2.799 2.799c-0.192 0.192-0.443 0.288-0.695 0.288s-0.503-0.096-0.695-0.288v0c-0.384-0.384-0.384-1.006 0-1.39v0l2.446-2.446h-15.653c-0.543 0-0.983-0.44-0.983-0.983s0.44-0.983 0.983-0.983h15.653l-2.446-2.447c-0.384-0.384-0.384-1.006 0-1.39zM22.358 24.5v2.5c0 2.61-2.124 4.733-4.733 4.733h-12.563c-2.61 0-4.733-2.124-4.733-4.733v-22c0-2.61 2.124-4.733 4.733-4.733h12.563c2.61 0 4.733 2.124 4.733 4.733v2.5c0 0.543-0.44 0.983-0.983 0.983s-0.983-0.44-0.983-0.983v-2.5c0-1.526-1.241-2.767-2.767-2.767h-12.563c-1.526 0-2.767 1.241-2.767 2.767v22c0 1.526 1.241 2.767 2.767 2.767h12.563c1.526 0 2.767-1.241 2.767-2.767v-2.5c0-0.543 0.44-0.983 0.983-0.983s0.983 0.44 0.983 0.983z"></path>
</symbol>
<symbol id="icon-LogOut1" viewBox="0 0 32 32">
<path fill="#fff" style="fill: var(--color2, #fff)" d="M26.769 11.242v-0c0.384-0.384 1.007-0.384 1.391 0l2.799 2.799c1.115 1.114 1.115 2.928 0 4.042l-2.799 2.799c-0.192 0.192-0.443 0.288-0.695 0.288s-0.503-0.096-0.695-0.288v0c-0.384-0.384-0.384-1.006 0-1.39v0l2.446-2.446h-15.653c-0.543 0-0.983-0.44-0.983-0.983s0.44-0.983 0.983-0.983h15.653l-2.446-2.447c-0.384-0.384-0.384-1.006 0-1.39zM22.358 24.5v2.5c0 2.61-2.124 4.733-4.733 4.733h-12.563c-2.61 0-4.733-2.124-4.733-4.733v-22c0-2.61 2.124-4.733 4.733-4.733h12.563c2.61 0 4.733 2.124 4.733 4.733v2.5c0 0.543-0.44 0.983-0.983 0.983s-0.983-0.44-0.983-0.983v-2.5c0-1.526-1.241-2.767-2.767-2.767h-12.563c-1.526 0-2.767 1.241-2.767 2.767v22c0 1.526 1.241 2.767 2.767 2.767h12.563c1.526 0 2.767-1.241 2.767-2.767v-2.5c0-0.543 0.44-0.983 0.983-0.983s0.983 0.44 0.983 0.983z"></path>
</symbol>
</defs>
</svg>
