<svg width="44" height="44" viewBox="0 0 44 44" fill="none" xmlns="http://www.w3.org/2000/svg">
<path fill-rule="evenodd" clip-rule="evenodd" d="M44 22C44 34.1503 34.1501 44 22 44C9.84985 44 0 34.1503 0 22C0 9.84973 9.84985 0 22 0C34.1501 0 44 9.84973 44 22ZM32.5469 10.5156H27.2734V9.63672C27.2734 8.18286 26.0906 7 24.6367 7H19.3633C17.9094 7 16.7266 8.18286 16.7266 9.63672V10.5156H11.4531C9.99927 10.5156 8.81641 11.6985 8.81641 13.1523V14.9102C8.81641 15.3955 9.20996 15.7891 9.69531 15.7891H10.6436L12.1897 34.5945L12.1902 34.6021C12.3147 35.9691 13.4436 37 14.8162 37H29.1838C30.5564 37 31.6853 35.9691 31.8096 34.6021L31.8103 34.5945L33.3564 15.7891H34.3047C34.79 15.7891 35.1836 15.3955 35.1836 14.9102V13.1523C35.1836 11.6985 34.0007 10.5156 32.5469 10.5156ZM18.4844 9.63672C18.4844 9.1521 18.8787 8.75781 19.3633 8.75781H24.6367C25.1213 8.75781 25.5156 9.1521 25.5156 9.63672V10.5156H18.4844V9.63672ZM30.0588 34.4458C30.0161 34.9 29.6404 35.2422 29.1838 35.2422H14.8162C14.3596 35.2422 13.9839 34.9 13.9412 34.4458L12.4072 15.7891H31.5928L30.0588 34.4458ZM33.4258 14.0312H32.5469H11.4531H10.5742V13.1523C10.5742 12.6677 10.9685 12.2734 11.4531 12.2734H17.6055H26.3945H32.5469C33.0315 12.2734 33.4258 12.6677 33.4258 13.1523V14.0312ZM21.1211 18.4258C21.1211 17.9404 21.5146 17.5469 22 17.5469C22.4854 17.5469 22.8789 17.9404 22.8789 18.4258V30.8477C22.8789 31.333 22.4854 31.7266 22 31.7266C21.5146 31.7266 21.1211 31.333 21.1211 30.8477V18.4258ZM27.2734 17.5469C26.7881 17.5469 26.3945 17.9404 26.3945 18.4258V30.8477C26.3945 31.333 26.7881 31.7266 27.2734 31.7266C27.7588 31.7266 28.1523 31.333 28.1523 30.8477V18.4258C28.1523 17.9404 27.7588 17.5469 27.2734 17.5469ZM15.8477 18.4258C15.8477 17.9404 16.2412 17.5469 16.7266 17.5469C17.2119 17.5469 17.6055 17.9404 17.6055 18.4258V30.8477C17.6055 31.333 17.2119 31.7266 16.7266 31.7266C16.2412 31.7266 15.8477 31.333 15.8477 30.8477V18.4258Z" fill="white"/>
</svg>
