<svg width="40" height="40" viewBox="0 0 40 40" fill="none" xmlns="http://www.w3.org/2000/svg">
<path fill-rule="evenodd" clip-rule="evenodd" d="M40 20C40 31.0457 31.0457 40 20 40C8.95435 40 0 31.0457 0 20C0 8.95435 8.95435 0 20 0C31.0457 0 40 8.95435 40 20ZM30.6501 13.5879L30.0981 11.9333C29.8879 11.3032 29.3003 10.8796 28.6361 10.8796H23.9968V9.36938C23.9968 8.61426 23.3831 8 22.6283 8H18.3799C17.6254 8 17.0114 8.61426 17.0114 9.36938V10.8796H12.3723C11.708 10.8796 11.1204 11.3032 10.9102 11.9333L10.3582 13.5879C10.2325 13.9646 10.2961 14.3818 10.5283 14.7039C10.7605 15.0261 11.136 15.2185 11.5331 15.2185H12.1101L13.38 30.9219C13.4744 32.0872 14.4631 33 15.6315 33H25.6345C26.8026 33 27.7915 32.0872 27.8857 30.9219L29.1556 15.2185H29.4752C29.8723 15.2185 30.2478 15.0261 30.48 14.7041C30.712 14.3821 30.7758 13.9646 30.6501 13.5879ZM18.4762 9.46484H22.532V10.8796H18.4762V9.46484ZM26.4257 30.8037C26.3925 31.2139 26.045 31.5352 25.6345 31.5352H15.6315C15.2209 31.5352 14.8734 31.2139 14.8402 30.8037L13.5797 15.2185H27.686L26.4257 30.8037ZM11.8473 13.7537L12.2999 12.3967C12.3102 12.3655 12.3394 12.3445 12.3723 12.3445H28.6361C28.6691 12.3445 28.6981 12.3655 28.7086 12.3967L29.1613 13.7537H11.8473ZM24.1283 30.7527C24.1154 30.7527 24.1025 30.7527 24.0896 30.7517C23.6855 30.731 23.3752 30.3862 23.3962 29.9822L24.0839 16.7791C24.105 16.3752 24.4485 16.0642 24.8535 16.0859C25.2572 16.1069 25.5677 16.4514 25.5468 16.8555L24.859 30.0586C24.8387 30.4495 24.5153 30.7527 24.1283 30.7527ZM16.182 30.0603C16.2034 30.4507 16.5264 30.7527 16.9126 30.7527C16.926 30.7527 16.9397 30.7524 16.9532 30.7517C17.3571 30.7297 17.6666 30.3845 17.6447 29.9805L16.9243 16.7773C16.9023 16.3735 16.5571 16.064 16.1532 16.0859C15.7494 16.1079 15.4398 16.4531 15.4618 16.8572L16.182 30.0603ZM21.2449 30.0203C21.2449 30.4248 20.917 30.7527 20.5125 30.7527C20.1079 30.7527 19.78 30.4248 19.78 30.0203V16.8171C19.78 16.4126 20.1079 16.0847 20.5125 16.0847C20.917 16.0847 21.2449 16.4126 21.2449 16.8171V30.0203Z" fill="white"/>
</svg>
